<svg width="682" height="631" viewBox="0 0 682 631" fill="none" xmlns="http://www.w3.org/2000/svg">
<path d="M318.539 0.28653C259.606 4.28653 201.872 23.7532 152.939 56.2865C101.606 90.4199 61.3391 136.02 34.5391 190.82C22.2725 215.753 16.2725 231.887 9.87246 257.487C2.0058 289.087 -0.127536 307.087 0.005797 342.82C0.13913 375.62 1.6058 389.487 8.0058 417.753C22.5391 482.82 59.7391 546.953 108.806 591.62C132.406 613.22 146.539 621.62 168.672 627.753L179.872 630.82H340.539H501.206L512.539 627.753C536.539 621.22 554.406 609.62 580.539 583.487C634.406 529.753 666.939 464.953 678.806 387.487C681.606 368.82 682.006 318.82 679.472 299.487C677.072 281.353 671.739 255.753 667.072 239.487C657.739 207.353 640.139 167.62 624.806 144.153C593.739 96.4199 547.739 57.2199 496.006 34.4199C459.072 18.1532 422.672 7.75322 385.739 2.95322C369.739 0.819883 332.539 -0.646804 318.539 0.28653ZM377.872 22.8199C438.672 29.8865 499.472 53.0866 542.672 85.6199C548.272 89.8866 553.072 94.0199 553.472 94.8199C553.872 96.1532 539.606 123.487 537.206 126.02C536.939 126.287 535.206 125.353 533.472 124.02C509.872 105.487 494.806 96.1532 472.539 86.0199C441.072 71.8865 403.739 61.6199 370.139 58.0199C351.606 56.1532 312.939 57.0865 295.739 60.0199C271.072 64.2865 237.606 74.2866 232.272 79.0866C229.472 81.6199 229.206 88.4199 231.739 91.7532C235.339 96.5532 239.339 96.8199 251.206 92.6866C310.539 72.0199 369.872 72.1532 432.939 92.8199C467.206 104.153 497.206 120.42 519.739 139.887C526.406 145.62 526.939 146.553 525.872 149.62C522.272 159.087 525.339 166.82 540.806 186.42C556.806 206.82 570.272 230.82 579.206 255.22C581.472 261.487 581.872 263.887 580.672 265.22C579.739 266.553 572.539 267.62 558.939 268.82C537.072 270.553 531.606 272.02 527.739 277.087L525.339 280.287L498.939 271.887C484.006 267.087 471.606 263.887 470.272 264.42C463.206 266.953 460.672 275.62 465.606 280.553C467.606 282.553 489.472 290.153 523.206 300.687C525.606 301.353 526.939 303.22 528.139 307.22L529.606 312.687L488.539 313.087C448.139 313.487 447.206 313.487 444.406 316.42C440.806 320.02 440.539 326.42 443.872 330.153C446.139 332.687 447.872 332.82 490.139 332.82C524.006 332.82 534.139 333.22 534.539 334.42C534.939 335.353 535.339 338.553 535.606 341.353L535.872 346.687L490.539 353.22C465.606 356.82 443.339 360.553 440.939 361.62C438.272 362.953 430.272 371.887 418.539 386.953C408.539 399.753 398.806 411.353 396.939 412.82C393.606 415.353 391.472 415.487 341.206 415.487C290.939 415.487 288.806 415.353 285.472 412.82C283.606 411.353 274.006 399.753 264.006 386.953C251.339 370.687 244.539 363.22 241.206 361.62C238.539 360.287 218.806 356.953 192.272 353.22C167.872 349.887 147.339 346.553 146.672 346.02C146.006 345.487 146.139 342.82 146.806 339.887L148.006 334.82L191.072 334.153L234.139 333.487L237.339 329.753C241.606 324.82 241.339 321.487 236.672 316.687L232.806 312.82H193.072H153.472L154.272 308.02C154.672 305.353 155.339 302.82 155.739 302.553C156.139 302.153 176.672 295.353 201.472 287.22C274.939 263.487 292.006 260.153 341.206 260.153C375.472 260.153 390.806 261.887 417.606 268.153C434.539 272.287 434.539 272.287 438.539 268.153C442.672 264.153 442.806 259.353 438.939 254.953C435.606 251.353 419.206 247.087 391.872 242.82C373.606 239.887 329.072 238.687 309.606 240.687C274.539 244.153 255.872 248.553 197.872 267.22L157.206 280.287L154.139 276.687C150.006 271.62 145.739 270.553 122.806 268.687C112.006 267.753 102.139 266.287 100.939 265.487C98.9391 264.02 98.9391 263.22 101.872 255.353C110.406 231.62 127.872 200.82 143.072 182.82C153.339 170.553 156.672 164.42 156.939 157.353C157.206 151.22 157.472 150.82 168.539 141.22C174.806 135.753 186.539 126.82 194.672 121.353C202.939 116.02 209.872 110.553 210.406 109.353C212.006 105.087 211.072 100.553 207.739 97.2199C205.072 94.5532 203.472 94.0199 200.406 94.6866C195.339 95.6199 173.872 109.887 160.006 121.487C154.139 126.287 149.339 130.02 149.072 129.753C148.806 129.62 146.672 124.687 144.139 118.82C141.606 112.953 138.272 105.353 136.806 101.887L134.006 95.6199L144.272 87.7532C181.072 59.3532 226.006 38.1532 270.272 28.2865C302.672 20.9532 344.539 18.8199 377.872 22.8199ZM187.206 372.82C209.606 375.887 229.072 378.82 230.672 379.487C232.272 380.02 241.739 391.087 251.872 404.02C265.872 422.02 271.606 428.42 276.406 431.087C279.739 433.087 282.672 434.687 282.939 434.82C283.072 434.953 283.872 440.42 284.806 446.953C286.006 456.153 286.939 459.353 289.339 461.753C293.339 465.753 298.539 465.62 302.539 461.487C306.139 458.02 306.406 454.953 304.672 442.42L303.739 435.487H340.539H377.339L373.072 473.087C370.672 493.887 368.672 511.887 368.539 513.087C368.539 515.087 367.206 515.487 360.006 515.487H351.472L350.939 498.687C350.539 482.153 350.539 481.887 346.806 478.687C342.139 474.687 338.939 474.687 334.272 478.687C330.539 481.887 330.539 482.153 330.139 498.687L329.606 515.487H321.339H312.939L311.606 504.153C310.672 496.553 309.339 491.887 307.872 490.153C304.539 486.553 297.339 486.687 293.739 490.287C291.072 492.953 290.939 494.153 291.606 504.953L292.539 516.82H289.072C280.539 516.82 274.139 523.353 269.739 536.553C268.139 541.487 266.006 547.087 264.939 549.087L263.072 552.82H239.072C211.472 552.82 204.006 551.487 189.206 543.753C172.939 535.22 144.406 505.753 127.739 480.153C111.872 455.753 97.3391 420.287 91.7391 392.287C89.6058 381.353 89.6058 380.287 91.6058 378.82C92.8058 378.02 100.806 376.553 109.472 375.62C128.806 373.62 134.006 372.287 137.339 368.687C139.072 366.82 140.939 366.153 143.206 366.553C145.072 366.953 164.806 369.753 187.206 372.82ZM545.206 368.82C548.406 372.287 553.739 373.62 572.939 375.62C582.672 376.687 589.072 377.887 590.006 379.087C594.139 384.02 580.806 428.02 566.539 456.287C553.206 482.82 542.272 497.753 519.872 520.287C505.072 535.087 499.339 540.02 491.872 543.753C476.539 551.753 469.339 552.953 441.606 552.553L417.206 552.153L412.272 538.953C409.606 531.753 406.272 524.687 404.939 523.22C401.739 519.62 396.006 516.82 391.872 516.82C390.006 516.82 388.539 516.42 388.539 515.753C388.539 512.82 397.739 435.22 398.139 435.087C410.672 428.82 412.139 427.487 429.339 405.62C438.939 393.353 447.739 382.287 448.939 381.22C450.406 379.62 463.472 377.353 494.806 372.82C518.806 369.353 539.472 366.42 540.672 366.287C541.872 366.287 543.872 367.353 545.206 368.82Z" fill="#13A0CD"/>
<path d="M331.873 281.087C301.739 285.087 279.339 315.62 284.272 345.62C287.472 364.82 299.739 380.82 317.606 389.22C325.872 393.087 327.606 393.353 340.673 393.487C354.273 393.487 355.073 393.353 364.806 388.42C387.606 377.22 401.206 351.887 396.806 328.687C390.939 296.82 363.606 276.82 331.873 281.087ZM355.873 304.02C363.339 307.487 371.339 315.62 374.673 323.087C378.273 331.353 377.739 344.287 373.473 353.22C369.473 361.22 364.806 365.887 356.006 370.553C348.273 374.687 332.806 374.687 325.072 370.553C310.939 363.087 303.872 351.62 304.139 336.953C304.272 326.553 306.806 320.153 313.606 312.553C320.539 304.82 329.739 300.82 340.539 300.82C346.806 300.82 351.073 301.753 355.873 304.02Z" fill="#084659"/>
</svg>
